<mxfile host="app.diagrams.net" modified="2023-04-11T16:55:18.611Z" agent="Mozilla/5.0 (Windows NT 10.0; Win64; x64) AppleWebKit/537.36 (KHTML, like Gecko) Chrome/112.0.0.0 Safari/537.36" version="21.1.4" etag="4lChWVUjBokqGGn3MN1s" type="github">
  <diagram name="Page-1" id="-EUlSISAOdObIw6veCdU">
    <mxGraphModel>
      <root>
        <mxCell id="0" />
        <mxCell id="1" parent="0" />
      </root>
    </mxGraphModel>
  </diagram>
</mxfile>
